<mxfile host="app.diagrams.net" modified="2024-03-04T09:31:12.751Z" agent="Mozilla/5.0 (Macintosh; Intel Mac OS X 10_15_7) AppleWebKit/537.36 (KHTML, like Gecko) Chrome/122.0.0.0 Safari/537.36" etag="yc_XVquoLCWHAy2bgsTt" version="24.0.0" type="github">
  <diagram name="第 1 页" id="8frAWVtzLvTuzlNs_-fz">
    <mxGraphModel dx="1434" dy="737" grid="1" gridSize="10" guides="1" tooltips="1" connect="1" arrows="1" fold="1" page="1" pageScale="1" pageWidth="1654" pageHeight="2336" math="0" shadow="0">
      <root>
        <mxCell id="0" />
        <mxCell id="1" parent="0" />
        <mxCell id="g6f9Jw1fsvvUWU2UvQlF-31" value="" style="edgeStyle=orthogonalEdgeStyle;rounded=0;orthogonalLoop=1;jettySize=auto;html=1;" edge="1" parent="1" source="g6f9Jw1fsvvUWU2UvQlF-1" target="g6f9Jw1fsvvUWU2UvQlF-29">
          <mxGeometry relative="1" as="geometry" />
        </mxCell>
        <mxCell id="g6f9Jw1fsvvUWU2UvQlF-1" value="开始" style="strokeWidth=2;html=1;shape=mxgraph.flowchart.terminator;whiteSpace=wrap;fillColor=#ffe6cc;strokeColor=#d79b00;" vertex="1" parent="1">
          <mxGeometry x="130" y="110" width="100" height="60" as="geometry" />
        </mxCell>
        <mxCell id="g6f9Jw1fsvvUWU2UvQlF-13" value="" style="edgeStyle=orthogonalEdgeStyle;rounded=0;orthogonalLoop=1;jettySize=auto;html=1;" edge="1" parent="1" source="g6f9Jw1fsvvUWU2UvQlF-4" target="g6f9Jw1fsvvUWU2UvQlF-6">
          <mxGeometry relative="1" as="geometry" />
        </mxCell>
        <mxCell id="g6f9Jw1fsvvUWU2UvQlF-4" value="&lt;div&gt;&lt;div&gt;创建支付宝投放订单&lt;/div&gt;&lt;/div&gt;" style="rounded=0;whiteSpace=wrap;html=1;fillColor=#ffe6cc;strokeColor=#d79b00;" vertex="1" parent="1">
          <mxGeometry x="690" y="110" width="120" height="60" as="geometry" />
        </mxCell>
        <mxCell id="g6f9Jw1fsvvUWU2UvQlF-15" value="" style="edgeStyle=orthogonalEdgeStyle;rounded=0;orthogonalLoop=1;jettySize=auto;html=1;" edge="1" parent="1" source="g6f9Jw1fsvvUWU2UvQlF-5">
          <mxGeometry relative="1" as="geometry">
            <mxPoint x="1260" y="140" as="targetPoint" />
          </mxGeometry>
        </mxCell>
        <mxCell id="g6f9Jw1fsvvUWU2UvQlF-5" value="创建卡劵明细订单" style="rounded=0;whiteSpace=wrap;html=1;fillColor=#ffe6cc;strokeColor=#d79b00;" vertex="1" parent="1">
          <mxGeometry x="1040" y="110" width="120" height="60" as="geometry" />
        </mxCell>
        <mxCell id="g6f9Jw1fsvvUWU2UvQlF-14" value="" style="edgeStyle=orthogonalEdgeStyle;rounded=0;orthogonalLoop=1;jettySize=auto;html=1;" edge="1" parent="1" source="g6f9Jw1fsvvUWU2UvQlF-6" target="g6f9Jw1fsvvUWU2UvQlF-5">
          <mxGeometry relative="1" as="geometry" />
        </mxCell>
        <mxCell id="g6f9Jw1fsvvUWU2UvQlF-17" value="" style="edgeStyle=orthogonalEdgeStyle;rounded=0;orthogonalLoop=1;jettySize=auto;html=1;" edge="1" parent="1" source="g6f9Jw1fsvvUWU2UvQlF-6" target="g6f9Jw1fsvvUWU2UvQlF-8">
          <mxGeometry relative="1" as="geometry" />
        </mxCell>
        <mxCell id="g6f9Jw1fsvvUWU2UvQlF-6" value="是否定额" style="rhombus;whiteSpace=wrap;html=1;fillColor=#f8cecc;strokeColor=#b85450;" vertex="1" parent="1">
          <mxGeometry x="890" y="100" width="80" height="80" as="geometry" />
        </mxCell>
        <mxCell id="g6f9Jw1fsvvUWU2UvQlF-16" style="edgeStyle=orthogonalEdgeStyle;rounded=0;orthogonalLoop=1;jettySize=auto;html=1;" edge="1" parent="1" source="g6f9Jw1fsvvUWU2UvQlF-8" target="g6f9Jw1fsvvUWU2UvQlF-5">
          <mxGeometry relative="1" as="geometry" />
        </mxCell>
        <mxCell id="g6f9Jw1fsvvUWU2UvQlF-8" value="调用算法分配卡劵数量及面额" style="rounded=0;whiteSpace=wrap;html=1;fillColor=#ffe6cc;strokeColor=#d79b00;" vertex="1" parent="1">
          <mxGeometry x="870" y="260" width="120" height="60" as="geometry" />
        </mxCell>
        <mxCell id="g6f9Jw1fsvvUWU2UvQlF-18" value="结束" style="strokeWidth=2;html=1;shape=mxgraph.flowchart.terminator;whiteSpace=wrap;fillColor=#ffe6cc;strokeColor=#d79b00;" vertex="1" parent="1">
          <mxGeometry x="130" y="410" width="100" height="60" as="geometry" />
        </mxCell>
        <mxCell id="g6f9Jw1fsvvUWU2UvQlF-23" value="" style="edgeStyle=orthogonalEdgeStyle;rounded=0;orthogonalLoop=1;jettySize=auto;html=1;" edge="1" parent="1" source="g6f9Jw1fsvvUWU2UvQlF-19" target="g6f9Jw1fsvvUWU2UvQlF-20">
          <mxGeometry relative="1" as="geometry" />
        </mxCell>
        <mxCell id="g6f9Jw1fsvvUWU2UvQlF-38" value="" style="edgeStyle=orthogonalEdgeStyle;rounded=0;orthogonalLoop=1;jettySize=auto;html=1;" edge="1" parent="1" source="g6f9Jw1fsvvUWU2UvQlF-19" target="g6f9Jw1fsvvUWU2UvQlF-37">
          <mxGeometry relative="1" as="geometry" />
        </mxCell>
        <mxCell id="g6f9Jw1fsvvUWU2UvQlF-19" value="是否通过机构额度校验" style="rhombus;whiteSpace=wrap;html=1;fillColor=#f8cecc;strokeColor=#b85450;" vertex="1" parent="1">
          <mxGeometry x="1240" y="100" width="80" height="80" as="geometry" />
        </mxCell>
        <mxCell id="g6f9Jw1fsvvUWU2UvQlF-22" value="" style="edgeStyle=orthogonalEdgeStyle;rounded=0;orthogonalLoop=1;jettySize=auto;html=1;" edge="1" parent="1" source="g6f9Jw1fsvvUWU2UvQlF-20" target="g6f9Jw1fsvvUWU2UvQlF-21">
          <mxGeometry relative="1" as="geometry" />
        </mxCell>
        <mxCell id="g6f9Jw1fsvvUWU2UvQlF-20" value="发起支付宝投放请求" style="rounded=0;whiteSpace=wrap;html=1;fillColor=#ffe6cc;strokeColor=#d79b00;" vertex="1" parent="1">
          <mxGeometry x="1420" y="110" width="120" height="60" as="geometry" />
        </mxCell>
        <mxCell id="g6f9Jw1fsvvUWU2UvQlF-24" style="edgeStyle=orthogonalEdgeStyle;rounded=0;orthogonalLoop=1;jettySize=auto;html=1;endArrow=none;endFill=0;" edge="1" parent="1" source="g6f9Jw1fsvvUWU2UvQlF-21">
          <mxGeometry relative="1" as="geometry">
            <mxPoint x="1480" y="440" as="targetPoint" />
          </mxGeometry>
        </mxCell>
        <mxCell id="g6f9Jw1fsvvUWU2UvQlF-21" value="修改订单状态" style="rounded=0;whiteSpace=wrap;html=1;fillColor=#ffe6cc;strokeColor=#d79b00;" vertex="1" parent="1">
          <mxGeometry x="1420" y="260" width="120" height="60" as="geometry" />
        </mxCell>
        <mxCell id="g6f9Jw1fsvvUWU2UvQlF-25" value="" style="endArrow=classic;html=1;rounded=0;entryX=1;entryY=0.5;entryDx=0;entryDy=0;entryPerimeter=0;" edge="1" parent="1" target="g6f9Jw1fsvvUWU2UvQlF-18">
          <mxGeometry width="50" height="50" relative="1" as="geometry">
            <mxPoint x="1480" y="440" as="sourcePoint" />
            <mxPoint x="890" y="390" as="targetPoint" />
          </mxGeometry>
        </mxCell>
        <mxCell id="g6f9Jw1fsvvUWU2UvQlF-32" value="" style="edgeStyle=orthogonalEdgeStyle;rounded=0;orthogonalLoop=1;jettySize=auto;html=1;" edge="1" parent="1" source="g6f9Jw1fsvvUWU2UvQlF-29" target="g6f9Jw1fsvvUWU2UvQlF-30">
          <mxGeometry relative="1" as="geometry" />
        </mxCell>
        <mxCell id="g6f9Jw1fsvvUWU2UvQlF-29" value="修改原始订单状态为处理中" style="rounded=0;whiteSpace=wrap;html=1;fillColor=#ffe6cc;strokeColor=#d79b00;" vertex="1" parent="1">
          <mxGeometry x="320" y="110" width="120" height="60" as="geometry" />
        </mxCell>
        <mxCell id="g6f9Jw1fsvvUWU2UvQlF-33" value="" style="edgeStyle=orthogonalEdgeStyle;rounded=0;orthogonalLoop=1;jettySize=auto;html=1;" edge="1" parent="1" source="g6f9Jw1fsvvUWU2UvQlF-30" target="g6f9Jw1fsvvUWU2UvQlF-4">
          <mxGeometry relative="1" as="geometry" />
        </mxCell>
        <mxCell id="g6f9Jw1fsvvUWU2UvQlF-35" value="" style="edgeStyle=orthogonalEdgeStyle;rounded=0;orthogonalLoop=1;jettySize=auto;html=1;" edge="1" parent="1" source="g6f9Jw1fsvvUWU2UvQlF-30" target="g6f9Jw1fsvvUWU2UvQlF-34">
          <mxGeometry relative="1" as="geometry" />
        </mxCell>
        <mxCell id="g6f9Jw1fsvvUWU2UvQlF-30" value="影响行数是否=1" style="rhombus;whiteSpace=wrap;html=1;fillColor=#f8cecc;strokeColor=#b85450;" vertex="1" parent="1">
          <mxGeometry x="530" y="100" width="80" height="80" as="geometry" />
        </mxCell>
        <mxCell id="g6f9Jw1fsvvUWU2UvQlF-36" style="edgeStyle=orthogonalEdgeStyle;rounded=0;orthogonalLoop=1;jettySize=auto;html=1;" edge="1" parent="1" source="g6f9Jw1fsvvUWU2UvQlF-34">
          <mxGeometry relative="1" as="geometry">
            <mxPoint x="570" y="440" as="targetPoint" />
          </mxGeometry>
        </mxCell>
        <mxCell id="g6f9Jw1fsvvUWU2UvQlF-34" value="返回订单已被处理" style="rounded=0;whiteSpace=wrap;html=1;fillColor=#ffe6cc;strokeColor=#d79b00;" vertex="1" parent="1">
          <mxGeometry x="510" y="260" width="120" height="60" as="geometry" />
        </mxCell>
        <mxCell id="g6f9Jw1fsvvUWU2UvQlF-37" value="修改订单状态&lt;div&gt;原始订单处理中&lt;/div&gt;&lt;div&gt;业务订单待领取&lt;/div&gt;&lt;div&gt;投放订单&lt;/div&gt;" style="rounded=0;whiteSpace=wrap;html=1;fillColor=#ffe6cc;strokeColor=#d79b00;" vertex="1" parent="1">
          <mxGeometry x="1220" y="260" width="120" height="60" as="geometry" />
        </mxCell>
      </root>
    </mxGraphModel>
  </diagram>
</mxfile>
